<svg xmlns="http://www.w3.org/2000/svg" viewBox="0 0 288.08 45.35"><defs><style>.cls-1{fill:none;stroke:#231f20;stroke-miterlimit:10;stroke-width:1.5px;}</style></defs><g id="Layer_2" data-name="Layer 2"><g id="Layer_1-2" data-name="Layer 1"><path class="cls-1" d="M123.4,2.49a22.3,22.3,0,0,1,17.27,0,22.54,22.54,0,0,1,7.09,4.69,22.12,22.12,0,0,1,4.75,7,21.48,21.48,0,0,1,0,17,21.72,21.72,0,0,1-11.84,11.68,22.55,22.55,0,0,1-24.36-4.67,22,22,0,0,1-4.75-7,21.48,21.48,0,0,1,0-17,22.12,22.12,0,0,1,4.75-7A22.54,22.54,0,0,1,123.4,2.49Zm1.43,27.28a10.3,10.3,0,0,0,14.41,0,9.59,9.59,0,0,0,3-7.1,9.58,9.58,0,0,0-3-7.09,10.3,10.3,0,0,0-14.41,0,9.58,9.58,0,0,0-3,7.09A9.59,9.59,0,0,0,124.83,29.77Z"/><path class="cls-1" d="M192.12,1.38a.77.77,0,0,1,.56.23.75.75,0,0,1,.23.57V27.42a21.3,21.3,0,0,1-.54,4.81,17.07,17.07,0,0,1-1.89,4.62,15.37,15.37,0,0,1-3.36,4,15.42,15.42,0,0,1-5.21,2.73,23.44,23.44,0,0,1-7.16,1,23.22,23.22,0,0,1-7.14-1,15.72,15.72,0,0,1-5.21-2.73,15.07,15.07,0,0,1-3.38-4,16.45,16.45,0,0,1-1.89-4.62,21.3,21.3,0,0,1-.55-4.81V2.18a.8.8,0,0,1,.8-.8h10.17a.83.83,0,0,1,.58.23.75.75,0,0,1,.26.57V27.63a9.32,9.32,0,0,0,.31,2.46,7.22,7.22,0,0,0,1,2.2,4.84,4.84,0,0,0,2,1.66,7.78,7.78,0,0,0,6,0,4.66,4.66,0,0,0,2-1.66,8.31,8.31,0,0,0,1-2.2,8.92,8.92,0,0,0,.33-2.46V2.18a.8.8,0,0,1,.8-.8Z"/><path class="cls-1" d="M223.49,29q4.92,5.6,5.17,14.2a.88.88,0,0,1-.23.59.79.79,0,0,1-.61.25H216.94a.79.79,0,0,1-.8-.8c-.14-3.39-1-6-2.58-7.79a9.1,9.1,0,0,0-6.53-3V43.17a.82.82,0,0,1-.26.59.77.77,0,0,1-.58.25H196.06a.76.76,0,0,1-.6-.25.84.84,0,0,1-.24-.59V2.22a.8.8,0,0,1,.84-.84H216a12.65,12.65,0,0,1,4.87.92,11.4,11.4,0,0,1,3.95,2.76,12.42,12.42,0,0,1,2.69,4.72,21.05,21.05,0,0,1,1,6.64Q228.45,25,223.49,29ZM207,12.3v9a.32.32,0,0,0,.37.37h4.83a4.06,4.06,0,0,0,3.09-1.32,4.94,4.94,0,0,0,1.24-3.53,4.91,4.91,0,0,0-1.24-3.52,4,4,0,0,0-3.09-1.33H207.4A.33.33,0,0,0,207,12.3Z"/><path class="cls-1" d="M256.84,2.81,256,11a.82.82,0,0,1-.34.56.67.67,0,0,1-.63.15,38,38,0,0,0-7.68-1,6.39,6.39,0,0,0-2.46.35,3.08,3.08,0,0,0-1.47,1,5.23,5.23,0,0,0-.61,1.09,2.56,2.56,0,0,0-.17.84,3.06,3.06,0,0,0,.17.93,6.09,6.09,0,0,0,.67,1.26,5.43,5.43,0,0,0,1.7,1.47,10.78,10.78,0,0,0,2.92,1.13,13.39,13.39,0,0,1,3.76,1.56,15.06,15.06,0,0,1,3.38,2.75,12.07,12.07,0,0,1,2.48,4.09,14.74,14.74,0,0,1,.93,5.29q0,6.14-3.79,9.1t-12.22,3a73.22,73.22,0,0,1-8.9-.51.75.75,0,0,1-.51-.29.89.89,0,0,1-.21-.59l.8-8.19a.8.8,0,0,1,.34-.59.79.79,0,0,1,.67-.12,37,37,0,0,0,7.39.92,6.49,6.49,0,0,0,2.5-.35,3.08,3.08,0,0,0,1.45-1,4.62,4.62,0,0,0,.59-1.1,2.67,2.67,0,0,0,.17-.86,3,3,0,0,0-.17-.92,5.84,5.84,0,0,0-.65-1.26,5,5,0,0,0-1.68-1.47,10.47,10.47,0,0,0-2.92-1.13,12.92,12.92,0,0,1-3.78-1.56,16,16,0,0,1-3.36-2.73,12.23,12.23,0,0,1-2.5-4.09,14.7,14.7,0,0,1-.94-5.32q0-5.88,4.26-9T247,1.38a85.78,85.78,0,0,1,9.15.55.75.75,0,0,1,.51.29A.89.89,0,0,1,256.84,2.81Z"/><path class="cls-1" d="M261.83,43.38a.8.8,0,0,1-.84-.84V2.22a.8.8,0,0,1,.84-.84h24.66a.88.88,0,0,1,.59.23.83.83,0,0,1,.25.61v8.36a.85.85,0,0,1-.84.84H272.8v6h11.84a.79.79,0,0,1,.8.8v8.4a.79.79,0,0,1-.8.8H272.8v6h13.69a.88.88,0,0,1,.59.23.79.79,0,0,1,.25.57v8.36a.83.83,0,0,1-.25.61.88.88,0,0,1-.59.23Z"/><path d="M13.61,2.49a22.27,22.27,0,0,1,17.26,0A22.7,22.7,0,0,1,38,7.18a21.93,21.93,0,0,1,4.74,7,21.37,21.37,0,0,1,0,17,21.8,21.8,0,0,1-4.74,7,22.54,22.54,0,0,1-24.36,4.67,22.2,22.2,0,0,1-7.1-4.67,22,22,0,0,1-4.75-7,21.48,21.48,0,0,1,0-17,22.12,22.12,0,0,1,4.75-7A22.58,22.58,0,0,1,13.61,2.49ZM15,29.77a9.86,9.86,0,0,0,7.2,2.94,9.89,9.89,0,0,0,7.2-2.94,9.59,9.59,0,0,0,3-7.1,9.58,9.58,0,0,0-3-7.09,9.89,9.89,0,0,0-7.2-2.94A9.86,9.86,0,0,0,15,15.58a9.59,9.59,0,0,0-3,7.09A9.6,9.6,0,0,0,15,29.77Z"/><path d="M73.08,1.38a.81.81,0,0,1,.57.23.85.85,0,0,1,.23.61v8.36a.88.88,0,0,1-.23.59.79.79,0,0,1-.57.25H58.72v6H71.19a.79.79,0,0,1,.8.8v8.4a.79.79,0,0,1-.8.8H58.72V42.54a.8.8,0,0,1-.26.61.83.83,0,0,1-.58.23H47.75a.79.79,0,0,1-.84-.84V2.22a.85.85,0,0,1,.23-.61.85.85,0,0,1,.61-.23Z"/><path d="M105.59,28.85l8.1,6.42a.84.84,0,0,1,.3.55.74.74,0,0,1-.17.59,22.09,22.09,0,0,1-7.58,6,21.53,21.53,0,0,1-9.6,2.19,21.81,21.81,0,0,1-20.3-13.4,21.59,21.59,0,0,1,0-17,22,22,0,0,1,4.7-7,22.49,22.49,0,0,1,7-4.69,22.06,22.06,0,0,1,18.15.44,22.13,22.13,0,0,1,7.56,6,.89.89,0,0,1,.17.63.82.82,0,0,1-.3.54l-8.1,6.39a.81.81,0,0,1-.57.19.76.76,0,0,1-.53-.28,12,12,0,0,0-3.54-2.68,9.38,9.38,0,0,0-4.27-1,10,10,0,0,0-10.08,10,10,10,0,0,0,10.08,10,9.49,9.49,0,0,0,4.29-1.05,11.54,11.54,0,0,0,3.57-2.73.69.69,0,0,1,.52-.27A.81.81,0,0,1,105.59,28.85Z"/></g></g></svg>